# xmcd
#
# Track frame offsets: 
#        150
#        14102
#        32593
#        47938
#        70381
#        83750
#        97951
#        108496
#        123087
#        138666
#        151255
#        176480
#        189407
#        204518
#        224595
#        236404
#        249268
#        271841
#        294923
#        310138
#
# Disc length: 4277 seconds
#
# Revision: 2
# Processed by: cddbd v1.5.2PL0 Copyright (c) Steve Scherf et al.
# Submitted via: ExactAudioCopyFreeDBPlugin 1.0
#
DISCID=1810b314
DTITLE=Various Artist - It's All About The Blues
DYEAR=2002
DGENRE=Blues
TTITLE0=Muddy Waters - 40 Days And 40 Nights
TTITLE1=Howlin' Wolf - Commit A Crime
TTITLE2=Billie Holiday - Stormy Blues
TTITLE3=Elmore James - Something Inside Of Me
TTITLE4=Champion Jack Dupree - Walking Blues
TTITLE5=Ma Rainey - Chain Gang Blues
TTITLE6=Sarah Vaughan - No Smokes Blues
TTITLE7=John Lee Hooker - Wandering Blues
TTITLE8=Jimmy Witherspoon (feat. Gerry Mulligan and Ben Webster) - Troub
TTITLE8=le Mind (Live)
TTITLE9=Della Reese - Birth Of The Blues
TTITLE10=Howlin' Wolf - Little Red Rooster
TTITLE11=Dinah Washington - All Or Nothing Blues
TTITLE12=Billie Holiday - T'Ain't Nobody's Bizness If I Do
TTITLE13=Carmen Mcrae - Body And Soul
TTITLE14=Big Joe Williams - Old Saw Mill Blues
TTITLE15=Bessie Smith - I'm Wild About That Thing
TTITLE16=Big Bill Broonzy - Ridin' On Down
TTITLE17=Sam Lightnin' Hopkins - I'm Gonna Meet My Baby Somewhere
TTITLE18=Esther Phillips - No Headstones On My Grave
TTITLE19=Irma Thomas - Set Me Free
EXTD=Space
EXTT0=
EXTT1=
EXTT2=
EXTT3=
EXTT4=
EXTT5=
EXTT6=
EXTT7=
EXTT8=
EXTT9=
EXTT10=
EXTT11=
EXTT12=
EXTT13=
EXTT14=
EXTT15=
EXTT16=
EXTT17=
EXTT18=
EXTT19=
PLAYORDER=
